<svg xmlns="http://www.w3.org/2000/svg" xmlns:xlink="http://www.w3.org/1999/xlink" width="1em" height="1em" preserveAspectRatio="xMidYMid meet" viewBox="0 0 24 24" style="-ms-transform: rotate(360deg); -webkit-transform: rotate(360deg); transform: rotate(360deg);"><path d="M19 8h-2v3h-3v2h3v3h2v-3h3v-2h-3zM4 8a3.91 3.91 0 0 0 4 4a3.91 3.91 0 0 0 4-4a3.91 3.91 0 0 0-4-4a3.91 3.91 0 0 0-4 4zm6 0a1.91 1.91 0 0 1-2 2a1.91 1.91 0 0 1-2-2a1.91 1.91 0 0 1 2-2a1.91 1.91 0 0 1 2 2zM4 18a3 3 0 0 1 3-3h2a3 3 0 0 1 3 3v1h2v-1a5 5 0 0 0-5-5H7a5 5 0 0 0-5 5v1h2z" fill="#001D3D"/></svg>
