<svg xmlns="http://www.w3.org/2000/svg" xmlns:xlink="http://www.w3.org/1999/xlink" aria-hidden="true" role="img" width="1em" height="1em" preserveAspectRatio="xMidYMid meet" viewBox="0 0 24 24"><path d="M13 13h2a1 1 0 0 1 0 2h-3a.997.997 0 0 1-1-1v-4a1 1 0 1 1 2 0v3zM5.869 8.861a1.5 1.5 0 1 1 2.077-1.76a7.967 7.967 0 0 1 1.126-.548A2.5 2.5 0 0 1 10.5 2h3a2.5 2.5 0 0 1 1.428 4.553c.39.154.767.337 1.126.548a1.5 1.5 0 1 1 2.077 1.76a8 8 0 1 1-12.263 0zM12 20a6 6 0 1 0 0-12a6 6 0 0 0 0 12zM10.5 4a.5.5 0 0 0 0 1h3a.5.5 0 0 0 0-1h-3z" fill="white"/></svg>
