<svg xmlns="http://www.w3.org/2000/svg" xmlns:xlink="http://www.w3.org/1999/xlink" width="1em" height="1em" preserveAspectRatio="xMidYMid meet" viewBox="0 0 256 256" style="-ms-transform: rotate(360deg); -webkit-transform: rotate(360deg); transform: rotate(360deg);"><path d="M234.353 160.813a12 12 0 1 1-20.786 12L197.29 144.62a127.015 127.015 0 0 1-29.367 13.47l5.19 29.431a12 12 0 1 1-23.634 4.168l-5.053-28.654a140.43 140.43 0 0 1-32.942-.01l-5.051 28.652a12 12 0 0 1-23.635-4.168l5.191-29.445a127.015 127.015 0 0 1-29.324-13.472l-16.384 28.378a12 12 0 0 1-20.785-12l17.855-30.926a153.17 153.17 0 0 1-16.686-17.629a12 12 0 0 1 18.668-15.082C57.059 116.798 84.858 140 128 140c43.14 0 70.94-23.202 86.666-42.666a12 12 0 1 1 18.668 15.082a153.09 153.09 0 0 1-16.725 17.664z" fill="white"/></svg>