<svg width="1920" height="460" viewBox="0 0 1920 460" fill="none" xmlns="http://www.w3.org/2000/svg">
<path fill-rule="evenodd" clip-rule="evenodd" d="M0 57.7237L53 86.6716C107 114.621 213 172.517 320 153.551C427 134.585 533 38.7578 640 9.80987C747 -19.1381 853 18.7937 960 86.6716C1067 153.551 1173 249.379 1280 306.277C1387 364.172 1493 383.138 1600 354.19C1707 326.241 1813 249.379 1867 210.449L1920 172.517V460H1867C1813 460 1707 460 1600 460C1493 460 1387 460 1280 460C1173 460 1067 460 960 460C853 460 747 460 640 460C533 460 427 460 320 460C213 460 107 460 53 460H0V57.7237Z" fill="#003566"/>
</svg>
